<svg width="46" height="46" viewBox="0 0 46 46" fill="none" xmlns="http://www.w3.org/2000/svg">
<path d="M27 26H19C18.448 26 18 26.448 18 27V45C18 45.552 18.448 46 19 46H27C27.552 46 28 45.552 28 45V27C28 26.448 27.552 26 27 26Z" fill="#2971EA"/>
<path d="M9 36H1C0.448 36 0 36.448 0 37V45C0 45.552 0.448 46 1 46H9C9.552 46 10 45.552 10 45V37C10 36.448 9.552 36 9 36Z" fill="#2971EA"/>
<path d="M45 16H37C36.448 16 36 16.448 36 17V45C36 45.552 36.448 46 37 46H45C45.552 46 46 45.552 46 45V17C46 16.448 45.552 16 45 16Z" fill="#2971EA"/>
<path d="M23.707 15.707L36 3.414V10C36 10.552 36.448 11 37 11C37.552 11 38 10.552 38 10V1C38 0.448 37.552 0 37 0H28C27.448 0 27 0.448 27 1C27 1.552 27.448 2 28 2H34.586L23 13.586L15.707 6.293C15.316 5.902 14.684 5.902 14.293 6.293L4.293 16.293L5.707 17.707L15 8.414L22.293 15.707C22.684 16.098 23.316 16.098 23.707 15.707Z" fill="#63A2EC"/>
</svg>
