<svg width="46" height="46" viewBox="0 0 46 46" fill="none" xmlns="http://www.w3.org/2000/svg">
<path d="M2 9H19V7H1C0.447 7 0 7.447 0 8V37C0 37.553 0.447 38 1 38H4V36H2V9Z" fill="#91ECD4"/>
<path fill-rule="evenodd" clip-rule="evenodd" d="M7 28H18C18.553 28 19 28.447 19 29V45C19 45.553 18.553 46 18 46H7C6.447 46 6 45.553 6 45V29C6 28.447 6.447 28 7 28ZM11 41.5C11 42.328 11.672 43 12.5 43C13.328 43 14 42.328 14 41.5C14 40.672 13.328 40 12.5 40C11.672 40 11 40.672 11 41.5Z" fill="#06D59F"/>
<path fill-rule="evenodd" clip-rule="evenodd" d="M23 0H38C39.103 0 40 0.897 40 2V20C40 21.103 39.103 22 38 22H23C21.897 22 21 21.103 21 20V2C21 0.897 21.897 0 23 0ZM29 17.5C29 18.328 29.672 19 30.5 19C31.328 19 32 18.328 32 17.5C32 16.672 31.328 16 30.5 16C29.672 16 29 16.672 29 17.5Z" fill="#06D59F"/>
<path d="M45 7H42V9H44V36H21V43H31C31.552 43 32 42.552 32 42C32 41.448 31.552 41 31 41H27V38H45C45.553 38 46 37.553 46 37V8C46 7.447 45.553 7 45 7Z" fill="#91ECD4"/>
</svg>
