<svg width="46" height="44" viewBox="0 0 46 44" fill="none" xmlns="http://www.w3.org/2000/svg">
<path d="M39.909 30.7C39.809 30.3 39.409 30 39.009 30H27.009C26.609 30 26.209 30.3 26.109 30.7L23.009 39.8L19.909 30.6C19.809 30.3 19.409 30 19.009 30H7.00902C6.60902 30 6.20902 30.3 6.10902 30.7L2.10902 42.7C1.90902 43 2.00902 43.3 2.20902 43.6C2.40902 43.9 2.70902 44 3.00902 44H23.009H43.009C43.309 44 43.609 43.8 43.809 43.6C44.009 43.4 44.009 43 43.909 42.7L39.909 30.7Z" fill="#FFAD2C"/>
<path d="M12.9657 28H32.9657C33.2657 28 33.5657 27.8 33.7657 27.6C33.9657 27.4 33.9657 27 33.8657 26.7L29.8657 14.7C29.7657 14.3 29.3657 14 28.9657 14H16.9657C16.5657 14 16.1657 14.3 16.0657 14.7L12.0657 26.7C11.9657 27 11.9657 27.3 12.1657 27.6C12.3657 27.9 12.6657 28 12.9657 28Z" fill="#FFAD2C"/>
<path d="M6 23C6 22.4 5.6 22 5 22H1C0.4 22 0 22.4 0 23C0 23.6 0.4 24 1 24H5C5.6 24 6 23.6 6 23Z" fill="#FFDB93"/>
<path d="M10.1 11.6C10.3 11.8 10.6 11.9 10.8 11.9C11 11.9 11.3 11.8 11.5 11.6C11.9 11.2 11.9 10.6 11.5 10.2L8.7 7.3C8.3 6.9 7.7 6.9 7.3 7.3C6.9 7.7 6.9 8.3 7.3 8.7L10.1 11.6Z" fill="#FFDB93"/>
<path d="M23 6C23.6 6 24 5.6 24 5V1C24 0.4 23.6 0 23 0C22.4 0 22 0.4 22 1V5C22 5.6 22.4 6 23 6Z" fill="#FFDB93"/>
<path d="M36 11.8C36.3 11.8 36.5 11.7 36.7 11.5L39.5 8.7C39.9 8.3 39.9 7.7 39.5 7.3C39.1 6.9 38.5 6.9 38.1 7.3L35.3 10.1C34.9 10.5 34.9 11.1 35.3 11.5C35.5 11.7 35.8 11.8 36 11.8Z" fill="#FFDB93"/>
<path d="M45 22H41C40.4 22 40 22.4 40 23C40 23.6 40.4 24 41 24H45C45.6 24 46 23.6 46 23C46 22.4 45.6 22 45 22Z" fill="#FFDB93"/>
</svg>
