<svg width="32" height="30" viewBox="0 0 32 30" fill="none" xmlns="http://www.w3.org/2000/svg">
<path d="M26.895 20.553C26.725 20.214 26.379 20 26 20H19C18.583 20 18.21 20.259 18.063 20.648L16 26.151L13.937 20.648C13.79 20.259 13.417 20 13 20H5.99998C5.62098 20 5.27498 20.214 5.10498 20.553L1.10498 28.553C0.949982 28.863 0.966982 29.231 1.14898 29.526C1.33098 29.821 1.65298 30 1.99998 30H16H30C30.347 30 30.668 29.82 30.851 29.525C31.034 29.23 31.05 28.862 30.895 28.552L26.895 20.553Z" fill="#FFB645"/>
<path d="M7.649 17.525C7.832 17.82 8.153 18 8.5 18H23.5C23.847 18 24.168 17.82 24.351 17.525C24.534 17.23 24.55 16.862 24.395 16.552L20.395 8.552C20.225 8.214 19.879 8 19.5 8H12.5C12.121 8 11.775 8.214 11.605 8.553L7.605 16.553C7.451 16.862 7.467 17.23 7.649 17.525Z" fill="#FFB645"/>
<rect y="15" width="5" height="2" fill="#FFDB93"/>
<rect x="3.979" y="5.39355" width="1.99998" height="4.99895" transform="rotate(-45 3.979 5.39355)" fill="#FFDB93"/>
<rect x="15" width="2" height="5" fill="#FFDB93"/>
<rect x="23.0709" y="7.51465" width="4.99895" height="1.99998" transform="rotate(-45 23.0709 7.51465)" fill="#FFDB93"/>
<rect x="27" y="15" width="5" height="2" fill="#FFDB93"/>
</svg>
