<svg width="45" height="44" viewBox="0 0 45 44" fill="none" xmlns="http://www.w3.org/2000/svg">
<path d="M2.29279 14.7193C2.68329 15.1097 3.31629 15.1097 3.70679 14.7193L8.99979 9.42631L14.2928 14.7193C14.6852 15.0983 15.3089 15.0929 15.6946 14.7071C16.0803 14.3214 16.0858 13.6977 15.7068 13.3053L10.4138 8.01231L15.7068 2.71931C15.9667 2.46824 16.071 2.09644 15.9795 1.74681C15.888 1.39718 15.6149 1.12413 15.2653 1.03262C14.9157 0.9411 14.5439 1.04536 14.2928 1.30531L8.99979 6.59831L3.70679 1.30531C3.31441 0.926341 2.6907 0.931761 2.30497 1.31749C1.91923 1.70323 1.91381 2.32693 2.29279 2.71931L7.58579 8.01231L2.29279 13.3053C1.9024 13.6958 1.9024 14.3288 2.29279 14.7193Z" fill="#F6BFCC"/>
<path d="M42.7193 28.2928C42.3288 27.9024 41.6958 27.9024 41.3053 28.2928L36.0123 33.5858L30.7193 28.2928C30.3269 27.9138 29.7032 27.9192 29.3175 28.305C28.9318 28.6907 28.9263 29.3144 29.3053 29.7068L34.5983 34.9998L29.3053 40.2928C29.0454 40.5439 28.9411 40.9157 29.0326 41.2653C29.1241 41.6149 29.3972 41.888 29.7468 41.9795C30.0964 42.071 30.4682 41.9667 30.7193 41.7068L36.0123 36.4138L41.3053 41.7068C41.6977 42.0858 42.3214 42.0803 42.7071 41.6946C43.0929 41.3089 43.0983 40.6852 42.7193 40.2928L37.4263 34.9998L42.7193 29.7068C43.1097 29.3163 43.1097 28.6833 42.7193 28.2928Z" fill="#F6BFCC"/>
<path d="M9 44C13.9706 44 18 39.9706 18 35C18 30.0294 13.9706 26 9 26C4.02944 26 0 30.0294 0 35C0 39.9706 4.02944 44 9 44Z" fill="#ED466D"/>
<path d="M43.0123 0H29.0123C28.6079 8.6348e-05 28.2434 0.243728 28.0886 0.617345C27.9339 0.990963 28.0194 1.42101 28.3053 1.707L34.5983 8L20.3053 22.293C20.0454 22.5441 19.9411 22.9159 20.0326 23.2655C20.1241 23.6151 20.3972 23.8882 20.7468 23.9797C21.0964 24.0712 21.4682 23.967 21.7193 23.707L36.0123 9.414L42.3053 15.707C42.5913 15.9929 43.0214 16.0784 43.395 15.9237C43.7686 15.7689 44.0122 15.4044 44.0123 15V1C44.0123 0.447715 43.5646 0 43.0123 0Z" fill="#ED466D"/>
</svg>
