<svg width="46" height="38" viewBox="0 0 46 38" fill="none" xmlns="http://www.w3.org/2000/svg">
<path d="M9 10C11.7614 10 14 7.76142 14 5C14 2.23858 11.7614 0 9 0C6.23858 0 4 2.23858 4 5C4 7.76142 6.23858 10 9 10Z" fill="#42A88B"/>
<path d="M39 12C34.187 12 31.805 14.958 29.7 17.568C28.2 19.434 26.771 21.193 24.474 22.055C24.516 22.13 24.574 22.196 24.606 22.273C25.0671 23.2295 25.1258 24.3309 24.769 25.331C24.6969 25.5357 24.608 25.7341 24.503 25.924C24.6647 25.9706 24.8318 25.9961 25 26C25.2266 25.9999 25.4515 25.961 25.665 25.885C28.1884 24.9128 30.3848 23.2458 32 21.077V37C32 37.5523 32.4477 38 33 38H45C45.5523 38 46 37.5523 46 37V19C45.995 15.1361 42.8639 12.005 39 12Z" fill="#7AEDCB"/>
<path d="M21.665 22.114C19.281 21.273 17.832 19.474 16.298 17.568C14.2 14.958 11.813 12 7 12C3.13606 12.005 0.00495836 15.1361 0 19V37C0 37.5523 0.447715 38 1 38H13C13.5523 38 14 37.5523 14 37V21.077C15.6151 23.2461 17.8115 24.9135 20.335 25.886C21.3714 26.2353 22.4962 25.6872 22.8599 24.6558C23.2235 23.6243 22.6913 22.492 21.665 22.114Z" fill="#42A88B"/>
<path d="M37 10C39.7614 10 42 7.76142 42 5C42 2.23858 39.7614 0 37 0C34.2386 0 32 2.23858 32 5C32 7.76142 34.2386 10 37 10Z" fill="#7AEDCB"/>
</svg>
