<svg width="72" height="72" viewBox="0 0 72 72" fill="none" xmlns="http://www.w3.org/2000/svg">
<path fill-rule="evenodd" clip-rule="evenodd" d="M36 72C55.8823 72 72 55.8823 72 36C72 16.1177 55.8823 0 36 0C16.1177 0 0 16.1177 0 36C0 55.8823 16.1177 72 36 72Z" fill="#1690BB"/>
<path d="M50.8261 32.7826C50.5807 32.7826 50.3346 32.8018 50.087 32.841V24.6522C50.087 24.2442 49.7566 23.913 49.3478 23.913H41.159C41.1982 23.6654 41.2174 23.4193 41.2174 23.1739C41.2174 20.3209 38.8958 18 36.0435 18C33.1912 18 30.8696 20.3209 30.8696 23.1739C30.8696 23.4193 30.8888 23.6654 30.928 23.913H22.7391C22.3304 23.913 22 24.2442 22 24.6522V33.5217C22 33.9297 22.3304 34.2609 22.7391 34.2609C24.7769 34.2609 26.4348 35.9187 26.4348 37.9565C26.4348 39.9943 24.7769 41.6522 22.7391 41.6522C22.3304 41.6522 22 41.9833 22 42.3913V51.2609C22 51.6689 22.3304 52 22.7391 52H31.6087C32.0174 52 32.3478 51.6689 32.3478 51.2609C32.3478 49.2231 34.0057 47.5652 36.0435 47.5652C38.0813 47.5652 39.7391 49.2231 39.7391 51.2609C39.7391 51.6689 40.0695 52 40.4783 52H49.3478C49.7566 52 50.087 51.6689 50.087 51.2609V43.072C50.3346 43.1112 50.5807 43.1304 50.8261 43.1304C53.6784 43.1304 56 40.8096 56 37.9565C56 35.1035 53.6784 32.7826 50.8261 32.7826Z" fill="#36BBE9"/>
</svg>
