<svg width="46" height="43" viewBox="0 0 46 43" fill="none" xmlns="http://www.w3.org/2000/svg">
<path d="M12 18.164C11.9994 17.1513 12.5097 16.2066 13.357 15.652L32.905 2.872C33.5197 2.46982 34.3054 2.43698 34.9515 2.78644C35.5976 3.1359 36.0002 3.81143 36 4.546V11H38V4.546C37.9991 3.07789 37.194 1.72827 35.9026 1.02997C34.6112 0.331677 33.041 0.396942 31.812 1.2L12.263 13.979C10.8488 14.9009 9.99722 16.4758 10 18.164V27H12V18.164Z" fill="#BBC3FC"/>
<path d="M45 41H20.967L41.367 30.013C42.9881 29.1418 43.9995 27.4504 44 25.61V14C44 13.4477 43.5523 13 43 13H31C30.4477 13 30 13.4477 30 14V21H19C18.4477 21 18 21.4477 18 22V29H7C6.44772 29 6 29.4477 6 30V41H1C0.447715 41 0 41.4477 0 42C0 42.5523 0.447715 43 1 43H45C45.5523 43 46 42.5523 46 42C46 41.4477 45.5523 41 45 41Z" fill="#535EC0"/>
</svg>
