<svg width="30" height="30" viewBox="0 0 30 30" fill="none" xmlns="http://www.w3.org/2000/svg">
<path d="M2.293 9.70692C2.6835 10.0973 3.3165 10.0973 3.707 9.70692L7 6.41392L10.293 9.70692C10.6854 10.0859 11.3091 10.0805 11.6948 9.69474C12.0806 9.309 12.086 8.6853 11.707 8.29292L8.414 4.99992L11.707 1.70692C12.086 1.31454 12.0806 0.690834 11.6948 0.3051C11.3091 -0.0806333 10.6854 -0.0860532 10.293 0.292919L7 3.58592L3.707 0.292919C3.31462 -0.0860532 2.69092 -0.0806333 2.30518 0.3051C1.91945 0.690834 1.91403 1.31454 2.293 1.70692L5.586 4.99992L2.293 8.29292C1.90262 8.68342 1.90262 9.31642 2.293 9.70692Z" fill="#F6BFCC"/>
<path d="M29.707 18.293C29.3165 17.9026 28.6835 17.9026 28.293 18.293L25 21.586L21.707 18.293C21.3146 17.9141 20.6909 17.9195 20.3052 18.3052C19.9194 18.6909 19.914 19.3147 20.293 19.707L23.586 23L20.293 26.293C20.033 26.5441 19.9288 26.9159 20.0203 27.2655C20.1118 27.6152 20.3849 27.8882 20.7345 27.9797C21.0841 28.0712 21.4559 27.967 21.707 27.707L25 24.414L28.293 27.707C28.6854 28.086 29.3091 28.0806 29.6948 27.6948C30.0806 27.3091 30.086 26.6854 29.707 26.293L26.414 23L29.707 19.707C30.0974 19.3165 30.0974 18.6835 29.707 18.293Z" fill="#F6BFCC"/>
<path d="M7 30C10.866 30 14 26.866 14 23C14 19.134 10.866 16 7 16C3.13401 16 0 19.134 0 23C0 26.866 3.13401 30 7 30Z" fill="#ED466D"/>
<path d="M29 0H19V2H26.586L13.293 15.293L14.707 16.707L28 3.414V11H30V1C30 0.447715 29.5523 0 29 0Z" fill="#ED466D"/>
</svg>
